<?xml version="1.0" encoding="iso-8859-1"?>
<!-- Generator: Adobe Illustrator 19.0.0, SVG Export Plug-In . SVG Version: 6.00 Build 0)  -->
<svg version="1.1" id="Layer_1" xmlns="http://www.w3.org/2000/svg" xmlns:xlink="http://www.w3.org/1999/xlink" x="0px" y="0px"
	 viewBox="0 0 511.991 511.991" style="enable-background:new 0 0 511.991 511.991;" xml:space="preserve">
<g>
	<g>
		<path d="M400.636,393.941c-13.926,9.173-25.6,13.781-44.604,17.604c-10.65,2.159-20.412,2.705-29.807,1.698
			c-9.788-1.05-18.722-4.19-26.556-9.344c-6.221-4.096-9.728-10.641-11.375-21.197c-1.596-10.377-2.031-21.103-2.244-30.225
			c-0.085-3.354-0.154-82.5-0.179-130.611h110.925V128H285.862L285.837,0H198.37l-1.613,11.051
			c-0.375,2.611-0.742,5.222-1.169,7.808c-2.978,18.031-7.023,32.145-12.706,44.407c-13.175,28.356-34.142,49.374-62.319,62.464
			c-3.814,1.766-7.714,3.243-11.622,4.727l-10.812,4.216v87.194h51.2v34.893c-0.008,43.221-0.008,86.204,0.026,129.656
			c0,13.559,0.964,25.481,2.961,36.446c2.671,14.729,10.368,28.493,24.192,43.324c13.867,14.882,32.495,27.187,52.454,34.637
			c11.708,4.386,23.996,7.398,37.547,9.207c7.663,1.007,15.497,1.621,23.27,1.835c0.307,0.008,9.651,0.128,15.01,0.128h0.683
			l6.357-0.333c22.647-0.973,45.466-6.067,71.825-16.026c3.627-1.365,6.63-2.295,9.489-3.191c4.565-1.417,9.284-2.884,15.437-5.743
			l5.282-2.176v-99.294L400.636,393.941z"/>
	</g>
</g>
<g>
</g>
<g>
</g>
<g>
</g>
<g>
</g>
<g>
</g>
<g>
</g>
<g>
</g>
<g>
</g>
<g>
</g>
<g>
</g>
<g>
</g>
<g>
</g>
<g>
</g>
<g>
</g>
<g>
</g>
</svg>
