<svg width="300" height="300" viewBox="0 0 300 300" fill="none" xmlns="http://www.w3.org/2000/svg">
<rect width="300" height="300" rx="150" fill="#FFF6EB"/>
<mask id="path-2-inside-1_76_15" fill="white">
<path d="M100.216 226.032C103.885 226.032 106.942 227.103 109.389 229.243C111.987 231.536 113.287 234.823 113.287 239.104C113.287 243.231 111.987 246.365 109.389 248.506C106.942 250.799 103.885 251.945 100.216 251.945H82.0999C72.4686 251.945 64.9775 249.27 59.6268 243.919C54.2761 238.568 51.6007 231.077 51.6007 221.446V181.545C51.6007 175.583 50.5306 171.302 48.3903 168.703C46.4029 165.952 42.8867 164.346 37.8417 163.888C33.714 163.582 30.5036 162.282 28.2104 159.989C26.0701 157.543 25 154.333 25 150.358C25 146.689 26.0701 143.708 28.2104 141.415C30.5036 138.969 33.714 137.593 37.8417 137.287C42.8867 136.828 46.4029 135.3 48.3903 132.701C50.5306 129.949 51.6007 125.592 51.6007 119.63V79.4991C51.6007 69.8678 54.2761 62.3768 59.6268 57.0261C64.9775 51.6754 72.4686 49 82.0999 49H100.216C103.885 49 106.942 50.1466 109.389 52.4397C111.987 54.58 113.287 57.714 113.287 61.8417C113.287 66.1223 111.987 69.4092 109.389 71.7024C106.942 73.8426 103.885 74.9128 100.216 74.9128H94.9416C91.7312 74.9128 89.3616 75.6772 87.8328 77.206C86.304 78.5819 85.5396 81.1043 85.5396 84.7734V123.757C85.5396 130.637 83.6286 136.523 79.8067 141.415C75.9847 146.307 71.5513 149.364 66.5063 150.587C71.5513 151.81 75.9847 154.868 79.8067 159.76C83.6286 164.652 85.5396 170.538 85.5396 177.417V216.172C85.5396 219.841 86.304 222.363 87.8328 223.739C89.3616 225.268 91.7312 226.032 94.9416 226.032H100.216Z"/>
<path d="M262.158 137.287C266.286 137.593 269.42 138.969 271.56 141.415C273.853 143.708 275 146.689 275 150.358C275 154.333 273.853 157.543 271.56 159.989C269.42 162.282 266.286 163.582 262.158 163.888C257.113 164.346 253.521 165.952 251.38 168.703C249.393 171.302 248.399 175.583 248.399 181.545L248.17 221.446C248.17 231.077 245.495 238.568 240.144 243.919C234.793 249.27 227.379 251.945 217.9 251.945H199.555C196.039 251.945 192.981 250.799 190.382 248.506C187.936 246.365 186.713 243.231 186.713 239.104C186.713 234.823 187.936 231.536 190.382 229.243C192.981 227.103 196.039 226.032 199.555 226.032H205.058C208.269 226.032 210.638 225.268 212.167 223.739C213.696 222.363 214.46 219.841 214.46 216.172V177.417C214.46 170.538 216.371 164.652 220.193 159.76C224.015 154.868 228.449 151.81 233.494 150.587C228.449 149.364 224.015 146.307 220.193 141.415C216.371 136.523 214.46 130.637 214.46 123.757V84.7734C214.46 81.1043 213.696 78.5819 212.167 77.206C210.638 75.6772 208.269 74.9128 205.058 74.9128H199.555C196.039 74.9128 192.981 73.8426 190.382 71.7024C187.936 69.4092 186.713 66.1223 186.713 61.8417C186.713 57.714 187.936 54.58 190.382 52.4397C192.981 50.1466 196.039 49 199.555 49H217.9C227.379 49 234.793 51.6754 240.144 57.0261C245.495 62.3768 248.17 69.8678 248.17 79.4991V119.63C248.17 125.592 249.164 129.949 251.151 132.701C253.291 135.3 256.96 136.828 262.158 137.287Z"/>
<path d="M163.685 101.313C169.705 101.313 175.055 102.889 179.737 106.043C184.515 109.1 188.193 113.448 190.773 119.085C193.448 124.627 194.786 131.029 194.786 138.29C194.786 145.552 193.448 151.954 190.773 157.495C188.193 162.942 184.562 167.146 179.881 170.108C175.199 173.07 169.8 174.551 163.685 174.551C158.908 174.551 154.56 173.595 150.643 171.684C146.821 169.678 143.859 166.907 141.757 163.372V190.46C141.757 193.326 140.801 195.619 138.89 197.339C136.979 199.059 134.447 199.919 131.294 199.919C127.95 199.919 125.227 199.011 123.125 197.196C121.118 195.38 120.115 192.992 120.115 190.03V111.775C120.115 108.718 121.07 106.281 122.981 104.466C124.988 102.555 127.615 101.6 130.864 101.6C134.113 101.6 136.693 102.555 138.604 104.466C140.515 106.281 141.47 108.718 141.47 111.775V112.922C143.572 109.291 146.582 106.473 150.499 104.466C154.417 102.364 158.812 101.313 163.685 101.313ZM157.379 158.069C162.443 158.069 166.36 156.397 169.131 153.052C171.902 149.613 173.288 144.692 173.288 138.29C173.288 131.793 171.902 126.777 169.131 123.241C166.36 119.61 162.443 117.795 157.379 117.795C152.315 117.795 148.397 119.563 145.626 123.098C142.855 126.538 141.47 131.506 141.47 138.004C141.47 144.405 142.855 149.374 145.626 152.909C148.397 156.349 152.315 158.069 157.379 158.069Z"/>
</mask>
<path d="M100.216 226.032C103.885 226.032 106.942 227.103 109.389 229.243C111.987 231.536 113.287 234.823 113.287 239.104C113.287 243.231 111.987 246.365 109.389 248.506C106.942 250.799 103.885 251.945 100.216 251.945H82.0999C72.4686 251.945 64.9775 249.27 59.6268 243.919C54.2761 238.568 51.6007 231.077 51.6007 221.446V181.545C51.6007 175.583 50.5306 171.302 48.3903 168.703C46.4029 165.952 42.8867 164.346 37.8417 163.888C33.714 163.582 30.5036 162.282 28.2104 159.989C26.0701 157.543 25 154.333 25 150.358C25 146.689 26.0701 143.708 28.2104 141.415C30.5036 138.969 33.714 137.593 37.8417 137.287C42.8867 136.828 46.4029 135.3 48.3903 132.701C50.5306 129.949 51.6007 125.592 51.6007 119.63V79.4991C51.6007 69.8678 54.2761 62.3768 59.6268 57.0261C64.9775 51.6754 72.4686 49 82.0999 49H100.216C103.885 49 106.942 50.1466 109.389 52.4397C111.987 54.58 113.287 57.714 113.287 61.8417C113.287 66.1223 111.987 69.4092 109.389 71.7024C106.942 73.8426 103.885 74.9128 100.216 74.9128H94.9416C91.7312 74.9128 89.3616 75.6772 87.8328 77.206C86.304 78.5819 85.5396 81.1043 85.5396 84.7734V123.757C85.5396 130.637 83.6286 136.523 79.8067 141.415C75.9847 146.307 71.5513 149.364 66.5063 150.587C71.5513 151.81 75.9847 154.868 79.8067 159.76C83.6286 164.652 85.5396 170.538 85.5396 177.417V216.172C85.5396 219.841 86.304 222.363 87.8328 223.739C89.3616 225.268 91.7312 226.032 94.9416 226.032H100.216Z" fill="#FFF6EB"/>
<path d="M262.158 137.287C266.286 137.593 269.42 138.969 271.56 141.415C273.853 143.708 275 146.689 275 150.358C275 154.333 273.853 157.543 271.56 159.989C269.42 162.282 266.286 163.582 262.158 163.888C257.113 164.346 253.521 165.952 251.38 168.703C249.393 171.302 248.399 175.583 248.399 181.545L248.17 221.446C248.17 231.077 245.495 238.568 240.144 243.919C234.793 249.27 227.379 251.945 217.9 251.945H199.555C196.039 251.945 192.981 250.799 190.382 248.506C187.936 246.365 186.713 243.231 186.713 239.104C186.713 234.823 187.936 231.536 190.382 229.243C192.981 227.103 196.039 226.032 199.555 226.032H205.058C208.269 226.032 210.638 225.268 212.167 223.739C213.696 222.363 214.46 219.841 214.46 216.172V177.417C214.46 170.538 216.371 164.652 220.193 159.76C224.015 154.868 228.449 151.81 233.494 150.587C228.449 149.364 224.015 146.307 220.193 141.415C216.371 136.523 214.46 130.637 214.46 123.757V84.7734C214.46 81.1043 213.696 78.5819 212.167 77.206C210.638 75.6772 208.269 74.9128 205.058 74.9128H199.555C196.039 74.9128 192.981 73.8426 190.382 71.7024C187.936 69.4092 186.713 66.1223 186.713 61.8417C186.713 57.714 187.936 54.58 190.382 52.4397C192.981 50.1466 196.039 49 199.555 49H217.9C227.379 49 234.793 51.6754 240.144 57.0261C245.495 62.3768 248.17 69.8678 248.17 79.4991V119.63C248.17 125.592 249.164 129.949 251.151 132.701C253.291 135.3 256.96 136.828 262.158 137.287Z" fill="#FFF6EB"/>
<path d="M163.685 101.313C169.705 101.313 175.055 102.889 179.737 106.043C184.515 109.1 188.193 113.448 190.773 119.085C193.448 124.627 194.786 131.029 194.786 138.29C194.786 145.552 193.448 151.954 190.773 157.495C188.193 162.942 184.562 167.146 179.881 170.108C175.199 173.07 169.8 174.551 163.685 174.551C158.908 174.551 154.56 173.595 150.643 171.684C146.821 169.678 143.859 166.907 141.757 163.372V190.46C141.757 193.326 140.801 195.619 138.89 197.339C136.979 199.059 134.447 199.919 131.294 199.919C127.95 199.919 125.227 199.011 123.125 197.196C121.118 195.38 120.115 192.992 120.115 190.03V111.775C120.115 108.718 121.07 106.281 122.981 104.466C124.988 102.555 127.615 101.6 130.864 101.6C134.113 101.6 136.693 102.555 138.604 104.466C140.515 106.281 141.47 108.718 141.47 111.775V112.922C143.572 109.291 146.582 106.473 150.499 104.466C154.417 102.364 158.812 101.313 163.685 101.313ZM157.379 158.069C162.443 158.069 166.36 156.397 169.131 153.052C171.902 149.613 173.288 144.692 173.288 138.29C173.288 131.793 171.902 126.777 169.131 123.241C166.36 119.61 162.443 117.795 157.379 117.795C152.315 117.795 148.397 119.563 145.626 123.098C142.855 126.538 141.47 131.506 141.47 138.004C141.47 144.405 142.855 149.374 145.626 152.909C148.397 156.349 152.315 158.069 157.379 158.069Z" fill="#FFF6EB"/>
<path d="M109.389 229.243L142.47 191.751L142.392 191.682L142.314 191.614L109.389 229.243ZM109.389 248.506L77.6032 209.909L76.3633 210.93L75.1915 212.029L109.389 248.506ZM59.6268 243.919L94.9822 208.564L94.9822 208.564L59.6268 243.919ZM48.3903 168.703L7.85634 197.978L8.78523 199.264L9.79379 200.489L48.3903 168.703ZM37.8417 163.888L42.3685 114.093L41.9522 114.055L41.5353 114.024L37.8417 163.888ZM28.2104 159.989L-9.4184 192.915L-8.32211 194.167L-7.14491 195.345L28.2104 159.989ZM28.2104 141.415L-8.26643 107.218L-8.30443 107.258L-8.34235 107.299L28.2104 141.415ZM37.8417 137.287L41.5353 187.15L41.9522 187.119L42.3685 187.082L37.8417 137.287ZM48.3903 132.701L8.92269 102.004L8.79689 102.165L8.67242 102.328L48.3903 132.701ZM59.6268 57.0261L94.9821 92.3815L94.9822 92.3814L59.6268 57.0261ZM109.389 52.4397L75.1915 88.9166L76.3633 90.0152L77.6032 91.0363L109.389 52.4397ZM109.389 71.7024L142.314 109.331L142.392 109.263L142.47 109.194L109.389 71.7024ZM87.8328 77.206L121.281 114.371L122.258 113.491L123.188 112.561L87.8328 77.206ZM79.8067 141.415L40.4055 110.632L40.4055 110.632L79.8067 141.415ZM66.5063 150.587L54.7263 101.995L54.7263 199.18L66.5063 150.587ZM79.8067 159.76L40.4055 190.542L40.4055 190.542L79.8067 159.76ZM87.8328 223.739L123.188 188.384L122.258 187.454L121.281 186.575L87.8328 223.739ZM262.158 137.287L257.764 187.093L258.114 187.124L258.465 187.15L262.158 137.287ZM271.56 141.415L233.931 174.34L235.028 175.593L236.205 176.77L271.56 141.415ZM271.56 159.989L235.083 125.792L235.045 125.833L235.007 125.873L271.56 159.989ZM262.158 163.888L258.465 114.024L258.048 114.055L257.631 114.093L262.158 163.888ZM251.38 168.703L211.913 138.006L211.787 138.168L211.662 138.331L251.38 168.703ZM248.399 181.545L298.398 181.832L298.399 181.689V181.545H248.399ZM248.17 221.446L198.171 221.159L198.17 221.302V221.446H248.17ZM240.144 243.919L275.499 279.275L275.499 279.275L240.144 243.919ZM190.382 248.506L223.463 211.014L223.385 210.945L223.307 210.877L190.382 248.506ZM190.382 229.243L158.597 190.646L157.357 191.668L156.185 192.766L190.382 229.243ZM212.167 223.739L178.719 186.575L177.742 187.454L176.812 188.384L212.167 223.739ZM220.193 159.76L259.595 190.542L259.595 190.542L220.193 159.76ZM233.494 150.587L245.274 199.18L245.274 101.995L233.494 150.587ZM220.193 141.415L259.595 110.632L259.595 110.632L220.193 141.415ZM212.167 77.206L176.812 112.561L177.742 113.491L178.719 114.371L212.167 77.206ZM190.382 71.7024L156.185 108.179L157.357 109.278L158.597 110.299L190.382 71.7024ZM190.382 52.4397L223.307 90.0686L223.385 90.0003L223.463 89.9317L190.382 52.4397ZM240.144 57.0261L204.788 92.3814L204.789 92.3814L240.144 57.0261ZM251.151 132.701L210.617 161.975L211.546 163.261L212.555 164.486L251.151 132.701ZM179.737 106.043L151.807 147.514L152.292 147.841L152.785 148.156L179.737 106.043ZM190.773 119.085L145.308 139.891L145.522 140.359L145.746 140.822L190.773 119.085ZM190.773 157.495L145.746 135.758L145.665 135.924L145.586 136.091L190.773 157.495ZM179.881 170.108L153.149 127.854L153.148 127.854L179.881 170.108ZM150.643 171.684L127.401 215.954L128.056 216.298L128.722 216.623L150.643 171.684ZM141.757 163.372L184.733 137.818L91.7567 -18.5521V163.372H141.757ZM138.89 197.339L172.338 234.504L172.338 234.504L138.89 197.339ZM123.125 197.196L89.579 234.273L90.007 234.66L90.4437 235.037L123.125 197.196ZM122.981 104.466L157.419 140.716L157.442 140.694L157.464 140.673L122.981 104.466ZM138.604 104.466L103.248 139.821L103.701 140.275L104.166 140.716L138.604 104.466ZM141.47 112.922H91.47V299.079L184.741 137.974L141.47 112.922ZM150.499 104.466L173.293 148.968L173.719 148.75L174.14 148.524L150.499 104.466ZM169.131 153.052L207.632 184.953L207.853 184.688L208.069 184.419L169.131 153.052ZM169.131 123.241L129.384 153.575L129.58 153.831L129.779 154.085L169.131 123.241ZM145.626 123.098L184.564 154.464L184.773 154.205L184.979 153.942L145.626 123.098ZM145.626 152.909L106.274 183.753L106.479 184.016L106.689 184.276L145.626 152.909ZM100.216 276.032C97.1627 276.032 93.1768 275.58 88.7432 274.028C84.2213 272.445 80.0317 269.994 76.4633 266.872L142.314 191.614C129.571 180.465 114.328 176.032 100.216 176.032V276.032ZM76.3075 266.735C71.5691 262.554 68.0066 257.356 65.8143 251.811C63.7181 246.509 63.2869 241.964 63.2869 239.104H163.287C163.287 224.126 158.289 205.709 142.47 191.751L76.3075 266.735ZM63.2869 239.104C63.2869 235.982 63.776 231.065 66.1252 225.399C68.5863 219.464 72.5317 214.086 77.6032 209.909L141.174 287.102C157.891 273.335 163.287 254.465 163.287 239.104H63.2869ZM75.1915 212.029C78.6476 208.789 82.8921 206.074 87.7047 204.269C92.4398 202.493 96.7907 201.945 100.216 201.945V301.945C115.283 301.945 130.962 296.817 143.586 284.982L75.1915 212.029ZM100.216 201.945H82.0999V301.945H100.216V201.945ZM82.0999 201.945C81.8447 201.945 83.4211 201.904 86.0749 202.852C88.9356 203.873 92.155 205.737 94.9822 208.564L24.2715 279.275C41.3807 296.384 63.0057 301.945 82.0999 301.945V201.945ZM94.9822 208.564C97.8093 211.391 99.6727 214.61 100.694 217.471C101.642 220.125 101.601 221.701 101.601 221.446H1.60073C1.60073 240.54 7.1623 262.165 24.2715 279.275L94.9822 208.564ZM101.601 221.446V181.545H1.60073V221.446H101.601ZM101.601 181.545C101.601 171.997 100.351 153.146 86.9868 136.918L9.79379 200.489C4.91207 194.561 3.02153 188.912 2.291 185.99C1.90408 184.442 1.74185 183.265 1.67076 182.584C1.6338 182.231 1.61677 181.966 1.60873 181.799C1.60465 181.714 1.60268 181.651 1.60171 181.609C1.60074 181.568 1.60073 181.546 1.60073 181.545H101.601ZM88.9243 139.429C75.0036 120.154 54.638 115.208 42.3685 114.093L33.3149 213.682C31.1354 213.484 17.8022 211.749 7.85634 197.978L88.9243 139.429ZM41.5353 114.024C45.9703 114.353 55.2567 116.325 63.5658 124.634L-7.14491 195.345C5.75048 208.24 21.4578 212.811 34.1481 213.751L41.5353 114.024ZM65.8393 127.064C73.3516 135.65 75 145.038 75 150.358H-25C-25 163.628 -21.2114 179.437 -9.4184 192.915L65.8393 127.064ZM75 150.358C75 153.386 74.5541 157.551 72.8623 162.264C71.1247 167.104 68.3755 171.66 64.7632 175.531L-8.34235 107.299C-20.5715 120.401 -25 136.319 -25 150.358H75ZM64.6873 175.612C56.5077 184.337 46.8424 186.757 41.5353 187.15L34.1481 87.4235C20.5856 88.4282 4.49946 93.6006 -8.26643 107.218L64.6873 175.612ZM42.3685 187.082C53.7937 186.043 73.9111 181.639 88.1082 163.073L8.67242 102.328C18.8947 88.9605 31.9797 87.6136 33.315 87.4923L42.3685 187.082ZM87.8579 163.398C100.193 147.538 101.601 129.573 101.601 119.63H1.60073C1.60073 119.629 1.60068 119.547 1.60834 119.387C1.61597 119.229 1.63207 118.978 1.66679 118.643C1.7339 117.996 1.88532 116.892 2.2413 115.443C2.92069 112.677 4.6282 107.525 8.92269 102.004L87.8579 163.398ZM101.601 119.63V79.4991H1.60073V119.63H101.601ZM101.601 79.4991C101.601 79.244 101.642 80.8204 100.694 83.4742C99.6727 86.3349 97.8093 89.5543 94.9821 92.3815L24.2715 21.6707C7.16229 38.7799 1.60073 60.4049 1.60073 79.4991H101.601ZM94.9822 92.3814C92.155 95.2086 88.9356 97.0719 86.075 98.0936C83.4211 99.0414 81.8447 99 82.0999 99V-1C63.0057 -1 41.3807 4.56156 24.2715 21.6708L94.9822 92.3814ZM82.0999 99H100.216V-1H82.0999V99ZM100.216 99C96.7906 99 92.4398 98.4521 87.7047 96.6764C82.8921 94.8717 78.6476 92.1567 75.1915 88.9166L143.586 15.9629C130.962 4.12832 115.283 -1 100.216 -1V99ZM77.6032 91.0363C72.5317 86.8597 68.5863 81.4817 66.1252 75.5462C63.776 69.8803 63.2869 64.963 63.2869 61.8417H163.287C163.287 46.4804 157.891 27.6105 141.174 13.8432L77.6032 91.0363ZM63.2869 61.8417C63.2869 58.9817 63.7181 54.4366 65.8143 49.1344C68.0067 43.589 71.5691 38.3914 76.3074 34.2105L142.47 109.194C158.289 95.2364 163.287 76.819 163.287 61.8417H63.2869ZM76.4633 34.0735C80.0318 30.9511 84.2214 28.4999 88.7433 26.9173C93.1769 25.3655 97.1628 24.9128 100.216 24.9128V124.913C114.328 124.913 129.571 120.481 142.314 109.331L76.4633 34.0735ZM100.216 24.9128H94.9416V124.913H100.216V24.9128ZM94.9416 24.9128C84.8506 24.9128 67.0936 27.2345 52.4774 41.8506L123.188 112.561C111.63 124.12 98.6118 124.913 94.9416 124.913V24.9128ZM54.3846 40.0412C36.5168 56.1222 35.5396 77.2846 35.5396 84.7734H135.54C135.54 86.0813 135.442 89.752 133.964 94.6301C132.434 99.6783 128.954 107.465 121.281 114.371L54.3846 40.0412ZM35.5396 84.7734V123.757H135.54V84.7734H35.5396ZM35.5396 123.757C35.5396 122.534 35.7166 120.458 36.5501 117.891C37.4027 115.265 38.7353 112.77 40.4055 110.632L119.208 172.197C130.645 157.558 135.54 140.515 135.54 123.757H35.5396ZM40.4055 110.632C41.1512 109.678 42.6867 107.969 45.2285 106.216C47.8546 104.405 51.0833 102.878 54.7263 101.995L78.2863 199.18C96.316 194.809 109.857 184.165 119.208 172.197L40.4055 110.632ZM54.7263 199.18C51.0832 198.297 47.8546 196.769 45.2285 194.958C42.6868 193.205 41.1512 191.497 40.4055 190.542L119.208 128.978C109.857 117.009 96.316 106.366 78.2864 101.995L54.7263 199.18ZM40.4055 190.542C38.7353 188.404 37.4027 185.91 36.5501 183.284C35.7166 180.717 35.5396 178.641 35.5396 177.417H135.54C135.54 160.659 130.645 143.617 119.208 128.978L40.4055 190.542ZM35.5396 177.417V216.172H135.54V177.417H35.5396ZM35.5396 216.172C35.5396 223.661 36.5168 244.823 54.3846 260.904L121.281 186.575C128.954 193.48 132.434 201.267 133.964 206.315C135.442 211.193 135.54 214.864 135.54 216.172H35.5396ZM52.4774 259.095C67.0937 273.711 84.8508 276.032 94.9416 276.032V176.032C98.6115 176.032 111.629 176.825 123.188 188.384L52.4774 259.095ZM94.9416 276.032H100.216V176.032H94.9416V276.032ZM258.465 187.15C253.246 186.764 242.635 184.287 233.931 174.34L309.189 108.489C296.205 93.6501 279.326 88.4216 265.852 87.4235L258.465 187.15ZM236.205 176.77C232.483 173.048 229.45 168.461 227.473 163.319C225.541 158.297 225 153.759 225 150.358H325C325 135.326 319.848 118.991 306.916 106.059L236.205 176.77ZM225 150.358C225 147.546 225.408 143.535 227.053 138.93C228.747 134.187 231.458 129.659 235.083 125.792L308.037 194.186C320.593 180.793 325 164.529 325 150.358H225ZM235.007 125.873C243.897 116.348 254.155 114.344 258.465 114.024L265.852 213.751C278.417 212.82 294.942 208.217 308.113 194.105L235.007 125.873ZM257.631 114.093C245.116 115.231 225.791 120.163 211.913 138.006L290.848 199.4C281.251 211.74 269.111 213.462 266.685 213.682L257.631 114.093ZM211.662 138.331C199.419 154.341 198.399 172.518 198.399 181.545H298.399C298.399 181.118 298.456 182.555 297.849 185.169C297.262 187.701 295.633 193.146 291.098 199.076L211.662 138.331ZM198.4 181.258L198.171 221.159L298.169 221.734L298.398 181.832L198.4 181.258ZM198.17 221.446C198.17 221.701 198.129 220.125 199.076 217.471C200.098 214.61 201.961 211.391 204.789 208.564L275.499 279.275C292.608 262.165 298.17 240.54 298.17 221.446H198.17ZM204.789 208.564C207.527 205.826 210.691 203.956 213.6 202.907C216.311 201.928 217.991 201.945 217.9 201.945V301.945C237.104 301.945 258.537 296.237 275.499 279.275L204.789 208.564ZM217.9 201.945H199.555V301.945H217.9V201.945ZM199.555 201.945C203.33 201.945 207.678 202.58 212.181 204.269C216.694 205.961 220.481 208.383 223.463 211.014L157.301 285.997C169.18 296.479 184.051 301.945 199.555 301.945V201.945ZM223.307 210.877C228.349 215.288 232.005 220.724 234.209 226.373C236.307 231.749 236.713 236.316 236.713 239.104H136.713C136.713 253.47 141.367 272.056 157.457 286.134L223.307 210.877ZM236.713 239.104C236.713 244.591 234.833 256.107 224.579 265.72L156.185 192.766C141.039 206.966 136.713 225.055 136.713 239.104H236.713ZM222.167 267.839C219.104 270.362 215.386 272.543 211.142 274.028C206.927 275.503 202.941 276.032 199.555 276.032V176.032C184.999 176.032 170.569 180.787 158.597 190.646L222.167 267.839ZM199.555 276.032H205.058V176.032H199.555V276.032ZM205.058 276.032C215.149 276.032 232.906 273.711 247.523 259.095L176.812 188.384C188.371 176.825 201.388 176.032 205.058 176.032V276.032ZM245.615 260.904C263.483 244.823 264.46 223.661 264.46 216.172H164.46C164.46 214.864 164.558 211.193 166.036 206.315C167.566 201.267 171.046 193.48 178.719 186.575L245.615 260.904ZM264.46 216.172V177.417H164.46V216.172H264.46ZM264.46 177.417C264.46 178.641 264.283 180.717 263.45 183.284C262.597 185.91 261.265 188.404 259.595 190.542L180.792 128.978C169.355 143.617 164.46 160.659 164.46 177.417H264.46ZM259.595 190.542C258.849 191.497 257.313 193.205 254.771 194.958C252.145 196.769 248.917 198.297 245.274 199.18L221.714 101.995C203.684 106.366 190.143 117.009 180.792 128.978L259.595 190.542ZM245.274 101.995C248.917 102.878 252.145 104.405 254.771 106.216C257.313 107.969 258.849 109.678 259.595 110.632L180.792 172.197C190.143 184.165 203.684 194.809 221.714 199.18L245.274 101.995ZM259.595 110.632C261.265 112.77 262.597 115.265 263.45 117.891C264.283 120.458 264.46 122.534 264.46 123.757H164.46C164.46 140.515 169.355 157.557 180.792 172.197L259.595 110.632ZM264.46 123.757V84.7734H164.46V123.757H264.46ZM264.46 84.7734C264.46 77.2843 263.483 56.1221 245.615 40.0413L178.719 114.371C171.046 107.465 167.566 99.6785 166.036 94.6303C164.558 89.7521 164.46 86.0813 164.46 84.7734H264.46ZM247.523 41.8506C232.906 27.2345 215.149 24.9128 205.058 24.9128V124.913C201.388 124.913 188.37 124.12 176.812 112.561L247.523 41.8506ZM205.058 24.9128H199.555V124.913H205.058V24.9128ZM199.555 24.9128C202.941 24.9128 206.927 25.4419 211.142 26.9173C215.386 28.4027 219.104 30.5833 222.167 33.1058L158.597 110.299C170.569 120.158 184.999 124.913 199.555 124.913V24.9128ZM224.579 35.2256C234.833 44.8388 236.713 56.3539 236.713 61.8417H136.713C136.713 75.8908 141.039 93.9796 156.185 108.179L224.579 35.2256ZM236.713 61.8417C236.713 64.6297 236.307 69.1958 234.209 74.5726C232.005 80.2208 228.349 85.6575 223.307 90.0686L157.457 14.8109C141.367 28.8892 136.713 47.4755 136.713 61.8417H236.713ZM223.463 89.9317C220.481 92.5627 216.694 94.9838 212.181 96.6764C207.678 98.3648 203.33 99 199.555 99V-1C184.051 -1 169.18 4.46665 157.301 14.9478L223.463 89.9317ZM199.555 99H217.9V-1H199.555V99ZM217.9 99C217.991 99 216.311 99.0169 213.6 98.0385C210.691 96.9889 207.527 95.1197 204.788 92.3814L275.499 21.6708C258.537 4.70848 237.104 -1 217.9 -1V99ZM204.789 92.3814C201.961 89.5543 200.098 86.3349 199.076 83.4742C198.129 80.8204 198.17 79.244 198.17 79.4991H298.17C298.17 60.4049 292.608 38.7799 275.499 21.6707L204.789 92.3814ZM198.17 79.4991V119.63H298.17V79.4991H198.17ZM198.17 119.63C198.17 129.061 199.346 146.37 210.617 161.975L291.685 103.426C295.651 108.917 297.117 113.856 297.663 116.251C298.222 118.699 298.17 120.028 298.17 119.63H198.17ZM212.555 164.486C226.91 181.918 246.39 186.09 257.764 187.093L266.553 87.4804C267.531 87.5667 279.673 88.6815 289.748 100.915L212.555 164.486ZM163.685 151.313C162.288 151.313 160.343 151.123 158.081 150.457C155.793 149.783 153.656 148.759 151.807 147.514L207.667 64.5707C194.173 55.4828 178.961 51.3129 163.685 51.3129V151.313ZM152.785 148.156C150.948 146.981 149.285 145.518 147.91 143.893C146.557 142.294 145.748 140.853 145.308 139.891L236.239 98.2788C230.049 84.7528 220.305 72.6424 206.69 63.929L152.785 148.156ZM145.746 140.822C145.208 139.708 144.951 138.802 144.84 138.269C144.734 137.761 144.786 137.724 144.786 138.29H244.786C244.786 124.846 242.287 110.784 235.801 97.3474L145.746 140.822ZM144.786 138.29C144.786 138.857 144.734 138.819 144.84 138.311C144.951 137.779 145.208 136.872 145.746 135.758L235.801 179.233C242.287 165.797 244.786 151.735 244.786 138.29H144.786ZM145.586 136.091C146.063 135.085 146.906 133.637 148.274 132.052C149.662 130.445 151.325 129.008 153.149 127.854L206.613 212.362C219.996 203.895 229.697 192.123 235.96 178.9L145.586 136.091ZM153.148 127.854C155.033 126.662 157.07 125.776 159.092 125.222C161.08 124.676 162.682 124.551 163.685 124.551V224.551C178.248 224.551 193.115 220.901 206.613 212.362L153.148 127.854ZM163.685 124.551C165.764 124.551 169.018 125.016 172.564 126.746L128.722 216.623C140.102 222.175 152.052 224.551 163.685 224.551V124.551ZM173.884 127.415C177.82 129.481 181.874 133.009 184.733 137.818L98.7799 188.925C105.843 200.805 115.821 209.875 127.401 215.954L173.884 127.415ZM91.7567 163.372V190.46H191.757V163.372H91.7567ZM91.7567 190.46C91.7567 186.297 92.4648 180.91 94.8862 175.099C97.3618 169.157 101.082 164.098 105.442 160.175L172.338 234.504C186.062 222.153 191.757 205.687 191.757 190.46H91.7567ZM105.442 160.175C114.677 151.863 125.021 149.919 131.294 149.919V249.919C143.873 249.919 159.282 246.255 172.338 234.504L105.442 160.175ZM131.294 149.919C137.388 149.919 147.059 151.801 155.806 159.355L90.4437 235.037C103.395 246.222 118.512 249.919 131.294 249.919V149.919ZM156.67 160.119C160.851 163.902 164.505 168.821 166.966 174.681C169.382 180.433 170.115 185.808 170.115 190.03H70.1149C70.1149 205.625 76.0358 222.019 89.579 234.273L156.67 160.119ZM170.115 190.03V111.775H70.1149V190.03H170.115ZM170.115 111.775C170.115 115.46 169.532 120.421 167.38 125.909C165.167 131.554 161.729 136.621 157.419 140.716L88.5439 68.216C75.0864 81.0006 70.1149 97.4038 70.1149 111.775H170.115ZM157.464 140.673C153.428 144.517 148.65 147.449 143.544 149.306C138.573 151.113 134.141 151.6 130.864 151.6V51.5995C117.145 51.5995 101.387 55.9849 88.4986 68.2591L157.464 140.673ZM130.864 151.6C127.61 151.6 123.043 151.12 117.87 149.204C112.527 147.225 107.482 144.055 103.248 139.821L173.959 69.1107C160.822 55.9737 144.507 51.5995 130.864 51.5995V151.6ZM104.166 140.716C99.8555 136.621 96.4183 131.554 94.2048 125.909C92.0525 120.421 91.47 115.46 91.47 111.775H191.47C191.47 97.4036 186.498 81.0005 173.041 68.216L104.166 140.716ZM91.47 111.775V112.922H191.47V111.775H91.47ZM184.741 137.974C181.786 143.079 177.487 146.82 173.293 148.968L127.706 59.9638C115.677 66.1251 105.358 75.5036 98.1987 87.8702L184.741 137.974ZM174.14 148.524C170.107 150.688 166.252 151.313 163.685 151.313V51.3129C151.372 51.3129 138.727 54.0394 126.859 60.408L174.14 148.524ZM157.379 208.069C174.577 208.069 193.735 201.726 207.632 184.953L130.63 121.152C134.221 116.818 138.975 113.181 144.487 110.828C149.79 108.565 154.417 108.069 157.379 108.069V208.069ZM208.069 184.419C220.6 168.864 223.288 151.121 223.288 138.29H123.288C123.288 138.263 123.205 130.362 130.194 121.686L208.069 184.419ZM223.288 138.29C223.288 125.449 220.64 107.906 208.484 92.3972L129.779 154.085C126.492 149.892 124.844 145.83 124.053 142.966C123.295 140.221 123.288 138.476 123.288 138.29H223.288ZM208.879 92.9076C195.528 75.4136 176.087 67.795 157.379 67.795V167.795C153.895 167.795 148.764 167.151 143.092 164.522C137.254 161.817 132.633 157.832 129.384 153.575L208.879 92.9076ZM157.379 67.795C139.176 67.795 119.815 74.9766 106.274 92.2539L184.979 153.942C181.616 158.234 176.945 162.107 171.207 164.696C165.653 167.202 160.688 167.795 157.379 167.795V67.795ZM106.689 91.7315C94.0678 107.399 91.47 125.287 91.47 138.004H191.47C191.47 138.176 191.466 139.986 190.672 142.834C189.842 145.808 188.094 150.082 184.564 154.464L106.689 91.7315ZM91.47 138.004C91.47 150.954 94.2061 168.357 106.274 183.753L184.979 122.065C191.505 130.391 191.47 137.856 191.47 138.004H91.47ZM106.689 184.276C120.413 201.313 139.68 208.069 157.379 208.069V108.069C160.514 108.069 165.311 108.612 170.742 110.997C176.371 113.468 181.086 117.225 184.564 121.543L106.689 184.276Z" fill="#113537" mask="url(#path-2-inside-1_76_15)"/>
</svg>
